{
	"patcher" : 	{
		"fileversion" : 1,
		"appversion" : 		{
			"major" : 6,
			"minor" : 1,
			"revision" : 9,
			"architecture" : "x86"
		}
,
		"rect" : [ 310.0, 265.0, 684.0, 431.0 ],
		"bglocked" : 0,
		"openinpresentation" : 0,
		"default_fontsize" : 12.0,
		"default_fontface" : 0,
		"default_fontname" : "Arial",
		"gridonopen" : 0,
		"gridsize" : [ 15.0, 15.0 ],
		"gridsnaponopen" : 0,
		"statusbarvisible" : 2,
		"toolbarvisible" : 1,
		"boxanimatetime" : 200,
		"imprint" : 0,
		"enablehscroll" : 1,
		"enablevscroll" : 1,
		"devicewidth" : 0.0,
		"description" : "",
		"digest" : "",
		"tags" : "",
		"boxes" : [ 			{
				"box" : 				{
					"comment" : "",
					"id" : "obj-166",
					"maxclass" : "inlet",
					"numinlets" : 0,
					"numoutlets" : 1,
					"outlettype" : [ "" ],
					"patching_rect" : [ 641.0, 19.0, 25.0, 25.0 ],
					"presentation_rect" : [ 690.0, 23.0, 0.0, 0.0 ]
				}

			}
, 			{
				"box" : 				{
					"comment" : "",
					"id" : "obj-167",
					"maxclass" : "inlet",
					"numinlets" : 0,
					"numoutlets" : 1,
					"outlettype" : [ "" ],
					"patching_rect" : [ 601.0, 19.0, 25.0, 25.0 ],
					"presentation_rect" : [ 650.0, 23.0, 0.0, 0.0 ]
				}

			}
, 			{
				"box" : 				{
					"comment" : "",
					"id" : "obj-168",
					"maxclass" : "inlet",
					"numinlets" : 0,
					"numoutlets" : 1,
					"outlettype" : [ "" ],
					"patching_rect" : [ 561.0, 19.0, 25.0, 25.0 ],
					"presentation_rect" : [ 610.0, 23.0, 0.0, 0.0 ]
				}

			}
, 			{
				"box" : 				{
					"comment" : "",
					"id" : "obj-169",
					"maxclass" : "inlet",
					"numinlets" : 0,
					"numoutlets" : 1,
					"outlettype" : [ "" ],
					"patching_rect" : [ 521.0, 19.0, 25.0, 25.0 ],
					"presentation_rect" : [ 570.0, 23.0, 0.0, 0.0 ]
				}

			}
, 			{
				"box" : 				{
					"comment" : "",
					"id" : "obj-170",
					"maxclass" : "outlet",
					"numinlets" : 1,
					"numoutlets" : 0,
					"patching_rect" : [ 641.0, 204.0, 25.0, 25.0 ],
					"presentation_rect" : [ 690.0, 208.0, 0.0, 0.0 ]
				}

			}
, 			{
				"box" : 				{
					"comment" : "",
					"id" : "obj-171",
					"maxclass" : "outlet",
					"numinlets" : 1,
					"numoutlets" : 0,
					"patching_rect" : [ 601.0, 204.0, 25.0, 25.0 ],
					"presentation_rect" : [ 650.0, 208.0, 0.0, 0.0 ]
				}

			}
, 			{
				"box" : 				{
					"comment" : "",
					"id" : "obj-172",
					"maxclass" : "outlet",
					"numinlets" : 1,
					"numoutlets" : 0,
					"patching_rect" : [ 561.0, 204.0, 25.0, 25.0 ],
					"presentation_rect" : [ 610.0, 208.0, 0.0, 0.0 ]
				}

			}
, 			{
				"box" : 				{
					"comment" : "",
					"id" : "obj-173",
					"maxclass" : "outlet",
					"numinlets" : 1,
					"numoutlets" : 0,
					"patching_rect" : [ 521.0, 204.0, 25.0, 25.0 ],
					"presentation_rect" : [ 570.0, 208.0, 0.0, 0.0 ]
				}

			}
, 			{
				"box" : 				{
					"fontname" : "Arial",
					"fontsize" : 12.0,
					"id" : "obj-174",
					"ignoreclick" : 1,
					"maxclass" : "number",
					"numinlets" : 1,
					"numoutlets" : 2,
					"outlettype" : [ "int", "bang" ],
					"parameter_enable" : 0,
					"patching_rect" : [ 641.0, 184.0, 30.0, 20.0 ],
					"presentation_rect" : [ 690.0, 188.0, 0.0, 0.0 ],
					"triangle" : 0
				}

			}
, 			{
				"box" : 				{
					"id" : "obj-175",
					"maxclass" : "slider",
					"numinlets" : 1,
					"numoutlets" : 1,
					"outlettype" : [ "" ],
					"parameter_enable" : 0,
					"patching_rect" : [ 641.0, 44.0, 30.0, 140.0 ],
					"presentation_rect" : [ 690.0, 48.0, 0.0, 0.0 ]
				}

			}
, 			{
				"box" : 				{
					"fontname" : "Arial",
					"fontsize" : 12.0,
					"id" : "obj-176",
					"ignoreclick" : 1,
					"maxclass" : "number",
					"numinlets" : 1,
					"numoutlets" : 2,
					"outlettype" : [ "int", "bang" ],
					"parameter_enable" : 0,
					"patching_rect" : [ 561.0, 184.0, 30.0, 20.0 ],
					"presentation_rect" : [ 610.0, 188.0, 0.0, 0.0 ],
					"triangle" : 0
				}

			}
, 			{
				"box" : 				{
					"id" : "obj-177",
					"maxclass" : "slider",
					"numinlets" : 1,
					"numoutlets" : 1,
					"outlettype" : [ "" ],
					"parameter_enable" : 0,
					"patching_rect" : [ 561.0, 44.0, 30.0, 140.0 ],
					"presentation_rect" : [ 610.0, 48.0, 0.0, 0.0 ]
				}

			}
, 			{
				"box" : 				{
					"fontname" : "Arial",
					"fontsize" : 12.0,
					"id" : "obj-178",
					"ignoreclick" : 1,
					"maxclass" : "number",
					"numinlets" : 1,
					"numoutlets" : 2,
					"outlettype" : [ "int", "bang" ],
					"parameter_enable" : 0,
					"patching_rect" : [ 521.0, 184.0, 30.0, 20.0 ],
					"presentation_rect" : [ 570.0, 188.0, 0.0, 0.0 ],
					"triangle" : 0
				}

			}
, 			{
				"box" : 				{
					"id" : "obj-179",
					"maxclass" : "slider",
					"numinlets" : 1,
					"numoutlets" : 1,
					"outlettype" : [ "" ],
					"parameter_enable" : 0,
					"patching_rect" : [ 521.0, 44.0, 30.0, 140.0 ],
					"presentation_rect" : [ 570.0, 48.0, 0.0, 0.0 ]
				}

			}
, 			{
				"box" : 				{
					"fontname" : "Arial",
					"fontsize" : 12.0,
					"id" : "obj-180",
					"ignoreclick" : 1,
					"maxclass" : "number",
					"numinlets" : 1,
					"numoutlets" : 2,
					"outlettype" : [ "int", "bang" ],
					"parameter_enable" : 0,
					"patching_rect" : [ 601.0, 184.0, 30.0, 20.0 ],
					"presentation_rect" : [ 650.0, 188.0, 0.0, 0.0 ],
					"triangle" : 0
				}

			}
, 			{
				"box" : 				{
					"id" : "obj-181",
					"maxclass" : "slider",
					"numinlets" : 1,
					"numoutlets" : 1,
					"outlettype" : [ "" ],
					"parameter_enable" : 0,
					"patching_rect" : [ 601.0, 44.0, 30.0, 140.0 ],
					"presentation_rect" : [ 650.0, 48.0, 0.0, 0.0 ]
				}

			}
, 			{
				"box" : 				{
					"comment" : "",
					"id" : "obj-182",
					"maxclass" : "inlet",
					"numinlets" : 0,
					"numoutlets" : 1,
					"outlettype" : [ "" ],
					"patching_rect" : [ 641.0, 205.0, 25.0, 25.0 ],
					"presentation_rect" : [ 690.0, 209.0, 0.0, 0.0 ]
				}

			}
, 			{
				"box" : 				{
					"comment" : "",
					"id" : "obj-183",
					"maxclass" : "inlet",
					"numinlets" : 0,
					"numoutlets" : 1,
					"outlettype" : [ "" ],
					"patching_rect" : [ 601.0, 205.0, 25.0, 25.0 ],
					"presentation_rect" : [ 650.0, 209.0, 0.0, 0.0 ]
				}

			}
, 			{
				"box" : 				{
					"comment" : "",
					"id" : "obj-184",
					"maxclass" : "inlet",
					"numinlets" : 0,
					"numoutlets" : 1,
					"outlettype" : [ "" ],
					"patching_rect" : [ 561.0, 205.0, 25.0, 25.0 ],
					"presentation_rect" : [ 610.0, 209.0, 0.0, 0.0 ]
				}

			}
, 			{
				"box" : 				{
					"comment" : "",
					"id" : "obj-185",
					"maxclass" : "inlet",
					"numinlets" : 0,
					"numoutlets" : 1,
					"outlettype" : [ "" ],
					"patching_rect" : [ 521.0, 205.0, 25.0, 25.0 ],
					"presentation_rect" : [ 570.0, 209.0, 0.0, 0.0 ]
				}

			}
, 			{
				"box" : 				{
					"comment" : "",
					"id" : "obj-186",
					"maxclass" : "outlet",
					"numinlets" : 1,
					"numoutlets" : 0,
					"patching_rect" : [ 641.0, 390.0, 25.0, 25.0 ],
					"presentation_rect" : [ 690.0, 394.0, 0.0, 0.0 ]
				}

			}
, 			{
				"box" : 				{
					"comment" : "",
					"id" : "obj-187",
					"maxclass" : "outlet",
					"numinlets" : 1,
					"numoutlets" : 0,
					"patching_rect" : [ 601.0, 390.0, 25.0, 25.0 ],
					"presentation_rect" : [ 650.0, 394.0, 0.0, 0.0 ]
				}

			}
, 			{
				"box" : 				{
					"comment" : "",
					"id" : "obj-188",
					"maxclass" : "outlet",
					"numinlets" : 1,
					"numoutlets" : 0,
					"patching_rect" : [ 561.0, 390.0, 25.0, 25.0 ],
					"presentation_rect" : [ 610.0, 394.0, 0.0, 0.0 ]
				}

			}
, 			{
				"box" : 				{
					"comment" : "",
					"id" : "obj-189",
					"maxclass" : "outlet",
					"numinlets" : 1,
					"numoutlets" : 0,
					"patching_rect" : [ 521.0, 390.0, 25.0, 25.0 ],
					"presentation_rect" : [ 570.0, 394.0, 0.0, 0.0 ]
				}

			}
, 			{
				"box" : 				{
					"fontname" : "Arial",
					"fontsize" : 12.0,
					"id" : "obj-190",
					"ignoreclick" : 1,
					"maxclass" : "number",
					"numinlets" : 1,
					"numoutlets" : 2,
					"outlettype" : [ "int", "bang" ],
					"parameter_enable" : 0,
					"patching_rect" : [ 641.0, 370.0, 30.0, 20.0 ],
					"presentation_rect" : [ 690.0, 374.0, 0.0, 0.0 ],
					"triangle" : 0
				}

			}
, 			{
				"box" : 				{
					"id" : "obj-191",
					"maxclass" : "slider",
					"numinlets" : 1,
					"numoutlets" : 1,
					"outlettype" : [ "" ],
					"parameter_enable" : 0,
					"patching_rect" : [ 641.0, 230.0, 30.0, 140.0 ],
					"presentation_rect" : [ 690.0, 234.0, 0.0, 0.0 ]
				}

			}
, 			{
				"box" : 				{
					"fontname" : "Arial",
					"fontsize" : 12.0,
					"id" : "obj-192",
					"ignoreclick" : 1,
					"maxclass" : "number",
					"numinlets" : 1,
					"numoutlets" : 2,
					"outlettype" : [ "int", "bang" ],
					"parameter_enable" : 0,
					"patching_rect" : [ 561.0, 370.0, 30.0, 20.0 ],
					"presentation_rect" : [ 610.0, 374.0, 0.0, 0.0 ],
					"triangle" : 0
				}

			}
, 			{
				"box" : 				{
					"id" : "obj-193",
					"maxclass" : "slider",
					"numinlets" : 1,
					"numoutlets" : 1,
					"outlettype" : [ "" ],
					"parameter_enable" : 0,
					"patching_rect" : [ 561.0, 230.0, 30.0, 140.0 ],
					"presentation_rect" : [ 610.0, 234.0, 0.0, 0.0 ]
				}

			}
, 			{
				"box" : 				{
					"fontname" : "Arial",
					"fontsize" : 12.0,
					"id" : "obj-194",
					"ignoreclick" : 1,
					"maxclass" : "number",
					"numinlets" : 1,
					"numoutlets" : 2,
					"outlettype" : [ "int", "bang" ],
					"parameter_enable" : 0,
					"patching_rect" : [ 521.0, 370.0, 30.0, 20.0 ],
					"presentation_rect" : [ 570.0, 374.0, 0.0, 0.0 ],
					"triangle" : 0
				}

			}
, 			{
				"box" : 				{
					"id" : "obj-195",
					"maxclass" : "slider",
					"numinlets" : 1,
					"numoutlets" : 1,
					"outlettype" : [ "" ],
					"parameter_enable" : 0,
					"patching_rect" : [ 521.0, 230.0, 30.0, 140.0 ],
					"presentation_rect" : [ 570.0, 234.0, 0.0, 0.0 ]
				}

			}
, 			{
				"box" : 				{
					"fontname" : "Arial",
					"fontsize" : 12.0,
					"id" : "obj-196",
					"ignoreclick" : 1,
					"maxclass" : "number",
					"numinlets" : 1,
					"numoutlets" : 2,
					"outlettype" : [ "int", "bang" ],
					"parameter_enable" : 0,
					"patching_rect" : [ 601.0, 370.0, 30.0, 20.0 ],
					"presentation_rect" : [ 650.0, 374.0, 0.0, 0.0 ],
					"triangle" : 0
				}

			}
, 			{
				"box" : 				{
					"id" : "obj-197",
					"maxclass" : "slider",
					"numinlets" : 1,
					"numoutlets" : 1,
					"outlettype" : [ "" ],
					"parameter_enable" : 0,
					"patching_rect" : [ 601.0, 230.0, 30.0, 140.0 ],
					"presentation_rect" : [ 650.0, 234.0, 0.0, 0.0 ]
				}

			}
, 			{
				"box" : 				{
					"comment" : "",
					"id" : "obj-134",
					"maxclass" : "inlet",
					"numinlets" : 0,
					"numoutlets" : 1,
					"outlettype" : [ "" ],
					"patching_rect" : [ 471.0, 19.0, 25.0, 25.0 ],
					"presentation_rect" : [ 503.0, 17.0, 0.0, 0.0 ]
				}

			}
, 			{
				"box" : 				{
					"comment" : "",
					"id" : "obj-135",
					"maxclass" : "inlet",
					"numinlets" : 0,
					"numoutlets" : 1,
					"outlettype" : [ "" ],
					"patching_rect" : [ 431.0, 19.0, 25.0, 25.0 ],
					"presentation_rect" : [ 463.0, 17.0, 0.0, 0.0 ]
				}

			}
, 			{
				"box" : 				{
					"comment" : "",
					"id" : "obj-136",
					"maxclass" : "inlet",
					"numinlets" : 0,
					"numoutlets" : 1,
					"outlettype" : [ "" ],
					"patching_rect" : [ 391.0, 19.0, 25.0, 25.0 ],
					"presentation_rect" : [ 423.0, 17.0, 0.0, 0.0 ]
				}

			}
, 			{
				"box" : 				{
					"comment" : "",
					"id" : "obj-137",
					"maxclass" : "inlet",
					"numinlets" : 0,
					"numoutlets" : 1,
					"outlettype" : [ "" ],
					"patching_rect" : [ 351.0, 19.0, 25.0, 25.0 ],
					"presentation_rect" : [ 383.0, 17.0, 0.0, 0.0 ]
				}

			}
, 			{
				"box" : 				{
					"comment" : "",
					"id" : "obj-138",
					"maxclass" : "outlet",
					"numinlets" : 1,
					"numoutlets" : 0,
					"patching_rect" : [ 471.0, 204.0, 25.0, 25.0 ],
					"presentation_rect" : [ 503.0, 202.0, 0.0, 0.0 ]
				}

			}
, 			{
				"box" : 				{
					"comment" : "",
					"id" : "obj-139",
					"maxclass" : "outlet",
					"numinlets" : 1,
					"numoutlets" : 0,
					"patching_rect" : [ 431.0, 204.0, 25.0, 25.0 ],
					"presentation_rect" : [ 463.0, 202.0, 0.0, 0.0 ]
				}

			}
, 			{
				"box" : 				{
					"comment" : "",
					"id" : "obj-140",
					"maxclass" : "outlet",
					"numinlets" : 1,
					"numoutlets" : 0,
					"patching_rect" : [ 391.0, 204.0, 25.0, 25.0 ],
					"presentation_rect" : [ 423.0, 202.0, 0.0, 0.0 ]
				}

			}
, 			{
				"box" : 				{
					"comment" : "",
					"id" : "obj-141",
					"maxclass" : "outlet",
					"numinlets" : 1,
					"numoutlets" : 0,
					"patching_rect" : [ 351.0, 204.0, 25.0, 25.0 ],
					"presentation_rect" : [ 383.0, 202.0, 0.0, 0.0 ]
				}

			}
, 			{
				"box" : 				{
					"fontname" : "Arial",
					"fontsize" : 12.0,
					"id" : "obj-142",
					"ignoreclick" : 1,
					"maxclass" : "number",
					"numinlets" : 1,
					"numoutlets" : 2,
					"outlettype" : [ "int", "bang" ],
					"parameter_enable" : 0,
					"patching_rect" : [ 471.0, 184.0, 30.0, 20.0 ],
					"presentation_rect" : [ 503.0, 182.0, 0.0, 0.0 ],
					"triangle" : 0
				}

			}
, 			{
				"box" : 				{
					"id" : "obj-143",
					"maxclass" : "slider",
					"numinlets" : 1,
					"numoutlets" : 1,
					"outlettype" : [ "" ],
					"parameter_enable" : 0,
					"patching_rect" : [ 471.0, 44.0, 30.0, 140.0 ],
					"presentation_rect" : [ 503.0, 42.0, 0.0, 0.0 ]
				}

			}
, 			{
				"box" : 				{
					"fontname" : "Arial",
					"fontsize" : 12.0,
					"id" : "obj-144",
					"ignoreclick" : 1,
					"maxclass" : "number",
					"numinlets" : 1,
					"numoutlets" : 2,
					"outlettype" : [ "int", "bang" ],
					"parameter_enable" : 0,
					"patching_rect" : [ 391.0, 184.0, 30.0, 20.0 ],
					"presentation_rect" : [ 423.0, 182.0, 0.0, 0.0 ],
					"triangle" : 0
				}

			}
, 			{
				"box" : 				{
					"id" : "obj-145",
					"maxclass" : "slider",
					"numinlets" : 1,
					"numoutlets" : 1,
					"outlettype" : [ "" ],
					"parameter_enable" : 0,
					"patching_rect" : [ 391.0, 44.0, 30.0, 140.0 ],
					"presentation_rect" : [ 423.0, 42.0, 0.0, 0.0 ]
				}

			}
, 			{
				"box" : 				{
					"fontname" : "Arial",
					"fontsize" : 12.0,
					"id" : "obj-146",
					"ignoreclick" : 1,
					"maxclass" : "number",
					"numinlets" : 1,
					"numoutlets" : 2,
					"outlettype" : [ "int", "bang" ],
					"parameter_enable" : 0,
					"patching_rect" : [ 351.0, 184.0, 30.0, 20.0 ],
					"presentation_rect" : [ 383.0, 182.0, 0.0, 0.0 ],
					"triangle" : 0
				}

			}
, 			{
				"box" : 				{
					"id" : "obj-147",
					"maxclass" : "slider",
					"numinlets" : 1,
					"numoutlets" : 1,
					"outlettype" : [ "" ],
					"parameter_enable" : 0,
					"patching_rect" : [ 351.0, 44.0, 30.0, 140.0 ],
					"presentation_rect" : [ 383.0, 42.0, 0.0, 0.0 ]
				}

			}
, 			{
				"box" : 				{
					"fontname" : "Arial",
					"fontsize" : 12.0,
					"id" : "obj-148",
					"ignoreclick" : 1,
					"maxclass" : "number",
					"numinlets" : 1,
					"numoutlets" : 2,
					"outlettype" : [ "int", "bang" ],
					"parameter_enable" : 0,
					"patching_rect" : [ 431.0, 184.0, 30.0, 20.0 ],
					"presentation_rect" : [ 463.0, 182.0, 0.0, 0.0 ],
					"triangle" : 0
				}

			}
, 			{
				"box" : 				{
					"id" : "obj-149",
					"maxclass" : "slider",
					"numinlets" : 1,
					"numoutlets" : 1,
					"outlettype" : [ "" ],
					"parameter_enable" : 0,
					"patching_rect" : [ 431.0, 44.0, 30.0, 140.0 ],
					"presentation_rect" : [ 463.0, 42.0, 0.0, 0.0 ]
				}

			}
, 			{
				"box" : 				{
					"comment" : "",
					"id" : "obj-150",
					"maxclass" : "inlet",
					"numinlets" : 0,
					"numoutlets" : 1,
					"outlettype" : [ "" ],
					"patching_rect" : [ 471.0, 205.0, 25.0, 25.0 ],
					"presentation_rect" : [ 503.0, 203.0, 0.0, 0.0 ]
				}

			}
, 			{
				"box" : 				{
					"comment" : "",
					"id" : "obj-151",
					"maxclass" : "inlet",
					"numinlets" : 0,
					"numoutlets" : 1,
					"outlettype" : [ "" ],
					"patching_rect" : [ 431.0, 205.0, 25.0, 25.0 ],
					"presentation_rect" : [ 463.0, 203.0, 0.0, 0.0 ]
				}

			}
, 			{
				"box" : 				{
					"comment" : "",
					"id" : "obj-152",
					"maxclass" : "inlet",
					"numinlets" : 0,
					"numoutlets" : 1,
					"outlettype" : [ "" ],
					"patching_rect" : [ 391.0, 205.0, 25.0, 25.0 ],
					"presentation_rect" : [ 423.0, 203.0, 0.0, 0.0 ]
				}

			}
, 			{
				"box" : 				{
					"comment" : "",
					"id" : "obj-153",
					"maxclass" : "inlet",
					"numinlets" : 0,
					"numoutlets" : 1,
					"outlettype" : [ "" ],
					"patching_rect" : [ 351.0, 205.0, 25.0, 25.0 ],
					"presentation_rect" : [ 383.0, 203.0, 0.0, 0.0 ]
				}

			}
, 			{
				"box" : 				{
					"comment" : "",
					"id" : "obj-154",
					"maxclass" : "outlet",
					"numinlets" : 1,
					"numoutlets" : 0,
					"patching_rect" : [ 471.0, 390.0, 25.0, 25.0 ],
					"presentation_rect" : [ 503.0, 388.0, 0.0, 0.0 ]
				}

			}
, 			{
				"box" : 				{
					"comment" : "",
					"id" : "obj-155",
					"maxclass" : "outlet",
					"numinlets" : 1,
					"numoutlets" : 0,
					"patching_rect" : [ 431.0, 390.0, 25.0, 25.0 ],
					"presentation_rect" : [ 463.0, 388.0, 0.0, 0.0 ]
				}

			}
, 			{
				"box" : 				{
					"comment" : "",
					"id" : "obj-156",
					"maxclass" : "outlet",
					"numinlets" : 1,
					"numoutlets" : 0,
					"patching_rect" : [ 391.0, 390.0, 25.0, 25.0 ],
					"presentation_rect" : [ 423.0, 388.0, 0.0, 0.0 ]
				}

			}
, 			{
				"box" : 				{
					"comment" : "",
					"id" : "obj-157",
					"maxclass" : "outlet",
					"numinlets" : 1,
					"numoutlets" : 0,
					"patching_rect" : [ 351.0, 390.0, 25.0, 25.0 ],
					"presentation_rect" : [ 383.0, 388.0, 0.0, 0.0 ]
				}

			}
, 			{
				"box" : 				{
					"fontname" : "Arial",
					"fontsize" : 12.0,
					"id" : "obj-158",
					"ignoreclick" : 1,
					"maxclass" : "number",
					"numinlets" : 1,
					"numoutlets" : 2,
					"outlettype" : [ "int", "bang" ],
					"parameter_enable" : 0,
					"patching_rect" : [ 471.0, 370.0, 30.0, 20.0 ],
					"presentation_rect" : [ 503.0, 368.0, 0.0, 0.0 ],
					"triangle" : 0
				}

			}
, 			{
				"box" : 				{
					"id" : "obj-159",
					"maxclass" : "slider",
					"numinlets" : 1,
					"numoutlets" : 1,
					"outlettype" : [ "" ],
					"parameter_enable" : 0,
					"patching_rect" : [ 471.0, 230.0, 30.0, 140.0 ],
					"presentation_rect" : [ 503.0, 228.0, 0.0, 0.0 ]
				}

			}
, 			{
				"box" : 				{
					"fontname" : "Arial",
					"fontsize" : 12.0,
					"id" : "obj-160",
					"ignoreclick" : 1,
					"maxclass" : "number",
					"numinlets" : 1,
					"numoutlets" : 2,
					"outlettype" : [ "int", "bang" ],
					"parameter_enable" : 0,
					"patching_rect" : [ 391.0, 370.0, 30.0, 20.0 ],
					"presentation_rect" : [ 423.0, 368.0, 0.0, 0.0 ],
					"triangle" : 0
				}

			}
, 			{
				"box" : 				{
					"id" : "obj-161",
					"maxclass" : "slider",
					"numinlets" : 1,
					"numoutlets" : 1,
					"outlettype" : [ "" ],
					"parameter_enable" : 0,
					"patching_rect" : [ 391.0, 230.0, 30.0, 140.0 ],
					"presentation_rect" : [ 423.0, 228.0, 0.0, 0.0 ]
				}

			}
, 			{
				"box" : 				{
					"fontname" : "Arial",
					"fontsize" : 12.0,
					"id" : "obj-162",
					"ignoreclick" : 1,
					"maxclass" : "number",
					"numinlets" : 1,
					"numoutlets" : 2,
					"outlettype" : [ "int", "bang" ],
					"parameter_enable" : 0,
					"patching_rect" : [ 351.0, 370.0, 30.0, 20.0 ],
					"presentation_rect" : [ 383.0, 368.0, 0.0, 0.0 ],
					"triangle" : 0
				}

			}
, 			{
				"box" : 				{
					"id" : "obj-163",
					"maxclass" : "slider",
					"numinlets" : 1,
					"numoutlets" : 1,
					"outlettype" : [ "" ],
					"parameter_enable" : 0,
					"patching_rect" : [ 351.0, 230.0, 30.0, 140.0 ],
					"presentation_rect" : [ 383.0, 228.0, 0.0, 0.0 ]
				}

			}
, 			{
				"box" : 				{
					"fontname" : "Arial",
					"fontsize" : 12.0,
					"id" : "obj-164",
					"ignoreclick" : 1,
					"maxclass" : "number",
					"numinlets" : 1,
					"numoutlets" : 2,
					"outlettype" : [ "int", "bang" ],
					"parameter_enable" : 0,
					"patching_rect" : [ 431.0, 370.0, 30.0, 20.0 ],
					"presentation_rect" : [ 463.0, 368.0, 0.0, 0.0 ],
					"triangle" : 0
				}

			}
, 			{
				"box" : 				{
					"id" : "obj-165",
					"maxclass" : "slider",
					"numinlets" : 1,
					"numoutlets" : 1,
					"outlettype" : [ "" ],
					"parameter_enable" : 0,
					"patching_rect" : [ 431.0, 230.0, 30.0, 140.0 ],
					"presentation_rect" : [ 463.0, 228.0, 0.0, 0.0 ]
				}

			}
, 			{
				"box" : 				{
					"comment" : "",
					"id" : "obj-102",
					"maxclass" : "inlet",
					"numinlets" : 0,
					"numoutlets" : 1,
					"outlettype" : [ "" ],
					"patching_rect" : [ 301.0, 19.0, 25.0, 25.0 ],
					"presentation_rect" : [ 315.0, 21.0, 0.0, 0.0 ]
				}

			}
, 			{
				"box" : 				{
					"comment" : "",
					"id" : "obj-103",
					"maxclass" : "inlet",
					"numinlets" : 0,
					"numoutlets" : 1,
					"outlettype" : [ "" ],
					"patching_rect" : [ 261.0, 19.0, 25.0, 25.0 ],
					"presentation_rect" : [ 275.0, 21.0, 0.0, 0.0 ]
				}

			}
, 			{
				"box" : 				{
					"comment" : "",
					"id" : "obj-104",
					"maxclass" : "inlet",
					"numinlets" : 0,
					"numoutlets" : 1,
					"outlettype" : [ "" ],
					"patching_rect" : [ 221.0, 19.0, 25.0, 25.0 ],
					"presentation_rect" : [ 235.0, 21.0, 0.0, 0.0 ]
				}

			}
, 			{
				"box" : 				{
					"comment" : "",
					"id" : "obj-105",
					"maxclass" : "inlet",
					"numinlets" : 0,
					"numoutlets" : 1,
					"outlettype" : [ "" ],
					"patching_rect" : [ 181.0, 19.0, 25.0, 25.0 ],
					"presentation_rect" : [ 195.0, 21.0, 0.0, 0.0 ]
				}

			}
, 			{
				"box" : 				{
					"comment" : "",
					"id" : "obj-106",
					"maxclass" : "outlet",
					"numinlets" : 1,
					"numoutlets" : 0,
					"patching_rect" : [ 301.0, 204.0, 25.0, 25.0 ],
					"presentation_rect" : [ 315.0, 206.0, 0.0, 0.0 ]
				}

			}
, 			{
				"box" : 				{
					"comment" : "",
					"id" : "obj-107",
					"maxclass" : "outlet",
					"numinlets" : 1,
					"numoutlets" : 0,
					"patching_rect" : [ 261.0, 204.0, 25.0, 25.0 ],
					"presentation_rect" : [ 275.0, 206.0, 0.0, 0.0 ]
				}

			}
, 			{
				"box" : 				{
					"comment" : "",
					"id" : "obj-108",
					"maxclass" : "outlet",
					"numinlets" : 1,
					"numoutlets" : 0,
					"patching_rect" : [ 221.0, 204.0, 25.0, 25.0 ],
					"presentation_rect" : [ 235.0, 206.0, 0.0, 0.0 ]
				}

			}
, 			{
				"box" : 				{
					"comment" : "",
					"id" : "obj-109",
					"maxclass" : "outlet",
					"numinlets" : 1,
					"numoutlets" : 0,
					"patching_rect" : [ 181.0, 204.0, 25.0, 25.0 ],
					"presentation_rect" : [ 195.0, 206.0, 0.0, 0.0 ]
				}

			}
, 			{
				"box" : 				{
					"fontname" : "Arial",
					"fontsize" : 12.0,
					"id" : "obj-110",
					"ignoreclick" : 1,
					"maxclass" : "number",
					"numinlets" : 1,
					"numoutlets" : 2,
					"outlettype" : [ "int", "bang" ],
					"parameter_enable" : 0,
					"patching_rect" : [ 301.0, 184.0, 30.0, 20.0 ],
					"presentation_rect" : [ 315.0, 186.0, 0.0, 0.0 ],
					"triangle" : 0
				}

			}
, 			{
				"box" : 				{
					"id" : "obj-111",
					"maxclass" : "slider",
					"numinlets" : 1,
					"numoutlets" : 1,
					"outlettype" : [ "" ],
					"parameter_enable" : 0,
					"patching_rect" : [ 301.0, 44.0, 30.0, 140.0 ],
					"presentation_rect" : [ 315.0, 46.0, 0.0, 0.0 ]
				}

			}
, 			{
				"box" : 				{
					"fontname" : "Arial",
					"fontsize" : 12.0,
					"id" : "obj-112",
					"ignoreclick" : 1,
					"maxclass" : "number",
					"numinlets" : 1,
					"numoutlets" : 2,
					"outlettype" : [ "int", "bang" ],
					"parameter_enable" : 0,
					"patching_rect" : [ 221.0, 184.0, 30.0, 20.0 ],
					"presentation_rect" : [ 235.0, 186.0, 0.0, 0.0 ],
					"triangle" : 0
				}

			}
, 			{
				"box" : 				{
					"id" : "obj-113",
					"maxclass" : "slider",
					"numinlets" : 1,
					"numoutlets" : 1,
					"outlettype" : [ "" ],
					"parameter_enable" : 0,
					"patching_rect" : [ 221.0, 44.0, 30.0, 140.0 ],
					"presentation_rect" : [ 235.0, 46.0, 0.0, 0.0 ]
				}

			}
, 			{
				"box" : 				{
					"fontname" : "Arial",
					"fontsize" : 12.0,
					"id" : "obj-114",
					"ignoreclick" : 1,
					"maxclass" : "number",
					"numinlets" : 1,
					"numoutlets" : 2,
					"outlettype" : [ "int", "bang" ],
					"parameter_enable" : 0,
					"patching_rect" : [ 181.0, 184.0, 30.0, 20.0 ],
					"presentation_rect" : [ 195.0, 186.0, 0.0, 0.0 ],
					"triangle" : 0
				}

			}
, 			{
				"box" : 				{
					"id" : "obj-115",
					"maxclass" : "slider",
					"numinlets" : 1,
					"numoutlets" : 1,
					"outlettype" : [ "" ],
					"parameter_enable" : 0,
					"patching_rect" : [ 181.0, 44.0, 30.0, 140.0 ],
					"presentation_rect" : [ 195.0, 46.0, 0.0, 0.0 ]
				}

			}
, 			{
				"box" : 				{
					"fontname" : "Arial",
					"fontsize" : 12.0,
					"id" : "obj-116",
					"ignoreclick" : 1,
					"maxclass" : "number",
					"numinlets" : 1,
					"numoutlets" : 2,
					"outlettype" : [ "int", "bang" ],
					"parameter_enable" : 0,
					"patching_rect" : [ 261.0, 184.0, 30.0, 20.0 ],
					"presentation_rect" : [ 275.0, 186.0, 0.0, 0.0 ],
					"triangle" : 0
				}

			}
, 			{
				"box" : 				{
					"id" : "obj-117",
					"maxclass" : "slider",
					"numinlets" : 1,
					"numoutlets" : 1,
					"outlettype" : [ "" ],
					"parameter_enable" : 0,
					"patching_rect" : [ 261.0, 44.0, 30.0, 140.0 ],
					"presentation_rect" : [ 275.0, 46.0, 0.0, 0.0 ]
				}

			}
, 			{
				"box" : 				{
					"comment" : "",
					"id" : "obj-118",
					"maxclass" : "inlet",
					"numinlets" : 0,
					"numoutlets" : 1,
					"outlettype" : [ "" ],
					"patching_rect" : [ 301.0, 205.0, 25.0, 25.0 ],
					"presentation_rect" : [ 315.0, 207.0, 0.0, 0.0 ]
				}

			}
, 			{
				"box" : 				{
					"comment" : "",
					"id" : "obj-119",
					"maxclass" : "inlet",
					"numinlets" : 0,
					"numoutlets" : 1,
					"outlettype" : [ "" ],
					"patching_rect" : [ 261.0, 205.0, 25.0, 25.0 ],
					"presentation_rect" : [ 275.0, 207.0, 0.0, 0.0 ]
				}

			}
, 			{
				"box" : 				{
					"comment" : "",
					"id" : "obj-120",
					"maxclass" : "inlet",
					"numinlets" : 0,
					"numoutlets" : 1,
					"outlettype" : [ "" ],
					"patching_rect" : [ 221.0, 205.0, 25.0, 25.0 ],
					"presentation_rect" : [ 235.0, 207.0, 0.0, 0.0 ]
				}

			}
, 			{
				"box" : 				{
					"comment" : "",
					"id" : "obj-121",
					"maxclass" : "inlet",
					"numinlets" : 0,
					"numoutlets" : 1,
					"outlettype" : [ "" ],
					"patching_rect" : [ 181.0, 205.0, 25.0, 25.0 ],
					"presentation_rect" : [ 195.0, 207.0, 0.0, 0.0 ]
				}

			}
, 			{
				"box" : 				{
					"comment" : "",
					"id" : "obj-122",
					"maxclass" : "outlet",
					"numinlets" : 1,
					"numoutlets" : 0,
					"patching_rect" : [ 301.0, 390.0, 25.0, 25.0 ],
					"presentation_rect" : [ 315.0, 392.0, 0.0, 0.0 ]
				}

			}
, 			{
				"box" : 				{
					"comment" : "",
					"id" : "obj-123",
					"maxclass" : "outlet",
					"numinlets" : 1,
					"numoutlets" : 0,
					"patching_rect" : [ 261.0, 390.0, 25.0, 25.0 ],
					"presentation_rect" : [ 275.0, 392.0, 0.0, 0.0 ]
				}

			}
, 			{
				"box" : 				{
					"comment" : "",
					"id" : "obj-124",
					"maxclass" : "outlet",
					"numinlets" : 1,
					"numoutlets" : 0,
					"patching_rect" : [ 221.0, 390.0, 25.0, 25.0 ],
					"presentation_rect" : [ 235.0, 392.0, 0.0, 0.0 ]
				}

			}
, 			{
				"box" : 				{
					"comment" : "",
					"id" : "obj-125",
					"maxclass" : "outlet",
					"numinlets" : 1,
					"numoutlets" : 0,
					"patching_rect" : [ 181.0, 390.0, 25.0, 25.0 ],
					"presentation_rect" : [ 195.0, 392.0, 0.0, 0.0 ]
				}

			}
, 			{
				"box" : 				{
					"fontname" : "Arial",
					"fontsize" : 12.0,
					"id" : "obj-126",
					"ignoreclick" : 1,
					"maxclass" : "number",
					"numinlets" : 1,
					"numoutlets" : 2,
					"outlettype" : [ "int", "bang" ],
					"parameter_enable" : 0,
					"patching_rect" : [ 301.0, 370.0, 30.0, 20.0 ],
					"presentation_rect" : [ 315.0, 372.0, 0.0, 0.0 ],
					"triangle" : 0
				}

			}
, 			{
				"box" : 				{
					"id" : "obj-127",
					"maxclass" : "slider",
					"numinlets" : 1,
					"numoutlets" : 1,
					"outlettype" : [ "" ],
					"parameter_enable" : 0,
					"patching_rect" : [ 301.0, 230.0, 30.0, 140.0 ],
					"presentation_rect" : [ 315.0, 232.0, 0.0, 0.0 ]
				}

			}
, 			{
				"box" : 				{
					"fontname" : "Arial",
					"fontsize" : 12.0,
					"id" : "obj-128",
					"ignoreclick" : 1,
					"maxclass" : "number",
					"numinlets" : 1,
					"numoutlets" : 2,
					"outlettype" : [ "int", "bang" ],
					"parameter_enable" : 0,
					"patching_rect" : [ 221.0, 370.0, 30.0, 20.0 ],
					"presentation_rect" : [ 235.0, 372.0, 0.0, 0.0 ],
					"triangle" : 0
				}

			}
, 			{
				"box" : 				{
					"id" : "obj-129",
					"maxclass" : "slider",
					"numinlets" : 1,
					"numoutlets" : 1,
					"outlettype" : [ "" ],
					"parameter_enable" : 0,
					"patching_rect" : [ 221.0, 230.0, 30.0, 140.0 ],
					"presentation_rect" : [ 235.0, 232.0, 0.0, 0.0 ]
				}

			}
, 			{
				"box" : 				{
					"fontname" : "Arial",
					"fontsize" : 12.0,
					"id" : "obj-130",
					"ignoreclick" : 1,
					"maxclass" : "number",
					"numinlets" : 1,
					"numoutlets" : 2,
					"outlettype" : [ "int", "bang" ],
					"parameter_enable" : 0,
					"patching_rect" : [ 181.0, 370.0, 30.0, 20.0 ],
					"presentation_rect" : [ 195.0, 372.0, 0.0, 0.0 ],
					"triangle" : 0
				}

			}
, 			{
				"box" : 				{
					"id" : "obj-131",
					"maxclass" : "slider",
					"numinlets" : 1,
					"numoutlets" : 1,
					"outlettype" : [ "" ],
					"parameter_enable" : 0,
					"patching_rect" : [ 181.0, 230.0, 30.0, 140.0 ],
					"presentation_rect" : [ 195.0, 232.0, 0.0, 0.0 ]
				}

			}
, 			{
				"box" : 				{
					"fontname" : "Arial",
					"fontsize" : 12.0,
					"id" : "obj-132",
					"ignoreclick" : 1,
					"maxclass" : "number",
					"numinlets" : 1,
					"numoutlets" : 2,
					"outlettype" : [ "int", "bang" ],
					"parameter_enable" : 0,
					"patching_rect" : [ 261.0, 370.0, 30.0, 20.0 ],
					"presentation_rect" : [ 275.0, 372.0, 0.0, 0.0 ],
					"triangle" : 0
				}

			}
, 			{
				"box" : 				{
					"id" : "obj-133",
					"maxclass" : "slider",
					"numinlets" : 1,
					"numoutlets" : 1,
					"outlettype" : [ "" ],
					"parameter_enable" : 0,
					"patching_rect" : [ 261.0, 230.0, 30.0, 140.0 ],
					"presentation_rect" : [ 275.0, 232.0, 0.0, 0.0 ]
				}

			}
, 			{
				"box" : 				{
					"comment" : "",
					"id" : "obj-86",
					"maxclass" : "inlet",
					"numinlets" : 0,
					"numoutlets" : 1,
					"outlettype" : [ "" ],
					"patching_rect" : [ 130.0, 19.0, 25.0, 25.0 ],
					"presentation_rect" : [ 130.0, 19.0, 0.0, 0.0 ]
				}

			}
, 			{
				"box" : 				{
					"comment" : "",
					"id" : "obj-87",
					"maxclass" : "inlet",
					"numinlets" : 0,
					"numoutlets" : 1,
					"outlettype" : [ "" ],
					"patching_rect" : [ 90.0, 19.0, 25.0, 25.0 ],
					"presentation_rect" : [ 90.0, 19.0, 0.0, 0.0 ]
				}

			}
, 			{
				"box" : 				{
					"comment" : "",
					"id" : "obj-88",
					"maxclass" : "inlet",
					"numinlets" : 0,
					"numoutlets" : 1,
					"outlettype" : [ "" ],
					"patching_rect" : [ 50.0, 19.0, 25.0, 25.0 ],
					"presentation_rect" : [ 50.0, 19.0, 0.0, 0.0 ]
				}

			}
, 			{
				"box" : 				{
					"comment" : "",
					"id" : "obj-89",
					"maxclass" : "inlet",
					"numinlets" : 0,
					"numoutlets" : 1,
					"outlettype" : [ "" ],
					"patching_rect" : [ 10.0, 19.0, 25.0, 25.0 ],
					"presentation_rect" : [ 10.0, 19.0, 0.0, 0.0 ]
				}

			}
, 			{
				"box" : 				{
					"comment" : "",
					"id" : "obj-90",
					"maxclass" : "outlet",
					"numinlets" : 1,
					"numoutlets" : 0,
					"patching_rect" : [ 130.0, 204.0, 25.0, 25.0 ],
					"presentation_rect" : [ 130.0, 204.0, 0.0, 0.0 ]
				}

			}
, 			{
				"box" : 				{
					"comment" : "",
					"id" : "obj-91",
					"maxclass" : "outlet",
					"numinlets" : 1,
					"numoutlets" : 0,
					"patching_rect" : [ 90.0, 204.0, 25.0, 25.0 ],
					"presentation_rect" : [ 90.0, 204.0, 0.0, 0.0 ]
				}

			}
, 			{
				"box" : 				{
					"comment" : "",
					"id" : "obj-92",
					"maxclass" : "outlet",
					"numinlets" : 1,
					"numoutlets" : 0,
					"patching_rect" : [ 50.0, 204.0, 25.0, 25.0 ],
					"presentation_rect" : [ 50.0, 204.0, 0.0, 0.0 ]
				}

			}
, 			{
				"box" : 				{
					"comment" : "",
					"id" : "obj-93",
					"maxclass" : "outlet",
					"numinlets" : 1,
					"numoutlets" : 0,
					"patching_rect" : [ 10.0, 204.0, 25.0, 25.0 ],
					"presentation_rect" : [ 10.0, 204.0, 0.0, 0.0 ]
				}

			}
, 			{
				"box" : 				{
					"fontname" : "Arial",
					"fontsize" : 12.0,
					"id" : "obj-94",
					"ignoreclick" : 1,
					"maxclass" : "number",
					"numinlets" : 1,
					"numoutlets" : 2,
					"outlettype" : [ "int", "bang" ],
					"parameter_enable" : 0,
					"patching_rect" : [ 130.0, 184.0, 30.0, 20.0 ],
					"presentation_rect" : [ 130.0, 184.0, 0.0, 0.0 ],
					"triangle" : 0
				}

			}
, 			{
				"box" : 				{
					"id" : "obj-95",
					"maxclass" : "slider",
					"numinlets" : 1,
					"numoutlets" : 1,
					"outlettype" : [ "" ],
					"parameter_enable" : 0,
					"patching_rect" : [ 130.0, 44.0, 30.0, 140.0 ],
					"presentation_rect" : [ 130.0, 44.0, 0.0, 0.0 ]
				}

			}
, 			{
				"box" : 				{
					"fontname" : "Arial",
					"fontsize" : 12.0,
					"id" : "obj-96",
					"ignoreclick" : 1,
					"maxclass" : "number",
					"numinlets" : 1,
					"numoutlets" : 2,
					"outlettype" : [ "int", "bang" ],
					"parameter_enable" : 0,
					"patching_rect" : [ 50.0, 184.0, 30.0, 20.0 ],
					"presentation_rect" : [ 50.0, 184.0, 0.0, 0.0 ],
					"triangle" : 0
				}

			}
, 			{
				"box" : 				{
					"id" : "obj-97",
					"maxclass" : "slider",
					"numinlets" : 1,
					"numoutlets" : 1,
					"outlettype" : [ "" ],
					"parameter_enable" : 0,
					"patching_rect" : [ 50.0, 44.0, 30.0, 140.0 ],
					"presentation_rect" : [ 50.0, 44.0, 0.0, 0.0 ]
				}

			}
, 			{
				"box" : 				{
					"fontname" : "Arial",
					"fontsize" : 12.0,
					"id" : "obj-98",
					"ignoreclick" : 1,
					"maxclass" : "number",
					"numinlets" : 1,
					"numoutlets" : 2,
					"outlettype" : [ "int", "bang" ],
					"parameter_enable" : 0,
					"patching_rect" : [ 10.0, 184.0, 30.0, 20.0 ],
					"presentation_rect" : [ 10.0, 184.0, 0.0, 0.0 ],
					"triangle" : 0
				}

			}
, 			{
				"box" : 				{
					"id" : "obj-99",
					"maxclass" : "slider",
					"numinlets" : 1,
					"numoutlets" : 1,
					"outlettype" : [ "" ],
					"parameter_enable" : 0,
					"patching_rect" : [ 10.0, 44.0, 30.0, 140.0 ],
					"presentation_rect" : [ 10.0, 44.0, 0.0, 0.0 ]
				}

			}
, 			{
				"box" : 				{
					"fontname" : "Arial",
					"fontsize" : 12.0,
					"id" : "obj-100",
					"ignoreclick" : 1,
					"maxclass" : "number",
					"numinlets" : 1,
					"numoutlets" : 2,
					"outlettype" : [ "int", "bang" ],
					"parameter_enable" : 0,
					"patching_rect" : [ 90.0, 184.0, 30.0, 20.0 ],
					"presentation_rect" : [ 90.0, 184.0, 0.0, 0.0 ],
					"triangle" : 0
				}

			}
, 			{
				"box" : 				{
					"id" : "obj-101",
					"maxclass" : "slider",
					"numinlets" : 1,
					"numoutlets" : 1,
					"outlettype" : [ "" ],
					"parameter_enable" : 0,
					"patching_rect" : [ 90.0, 44.0, 30.0, 140.0 ],
					"presentation_rect" : [ 90.0, 44.0, 0.0, 0.0 ]
				}

			}
, 			{
				"box" : 				{
					"comment" : "",
					"id" : "obj-81",
					"maxclass" : "inlet",
					"numinlets" : 0,
					"numoutlets" : 1,
					"outlettype" : [ "" ],
					"patching_rect" : [ 130.0, 205.0, 25.0, 25.0 ],
					"presentation_rect" : [ 132.0, 209.0, 0.0, 0.0 ]
				}

			}
, 			{
				"box" : 				{
					"comment" : "",
					"id" : "obj-80",
					"maxclass" : "inlet",
					"numinlets" : 0,
					"numoutlets" : 1,
					"outlettype" : [ "" ],
					"patching_rect" : [ 90.0, 205.0, 25.0, 25.0 ],
					"presentation_rect" : [ 93.0, 206.0, 0.0, 0.0 ]
				}

			}
, 			{
				"box" : 				{
					"comment" : "",
					"id" : "obj-79",
					"maxclass" : "inlet",
					"numinlets" : 0,
					"numoutlets" : 1,
					"outlettype" : [ "" ],
					"patching_rect" : [ 50.0, 205.0, 25.0, 25.0 ],
					"presentation_rect" : [ 52.0, 206.0, 0.0, 0.0 ]
				}

			}
, 			{
				"box" : 				{
					"comment" : "",
					"id" : "obj-78",
					"maxclass" : "inlet",
					"numinlets" : 0,
					"numoutlets" : 1,
					"outlettype" : [ "" ],
					"patching_rect" : [ 10.0, 205.0, 25.0, 25.0 ]
				}

			}
, 			{
				"box" : 				{
					"comment" : "",
					"id" : "obj-77",
					"maxclass" : "outlet",
					"numinlets" : 1,
					"numoutlets" : 0,
					"patching_rect" : [ 130.0, 390.0, 25.0, 25.0 ],
					"presentation_rect" : [ 130.0, 394.0, 0.0, 0.0 ]
				}

			}
, 			{
				"box" : 				{
					"comment" : "",
					"id" : "obj-76",
					"maxclass" : "outlet",
					"numinlets" : 1,
					"numoutlets" : 0,
					"patching_rect" : [ 90.0, 390.0, 25.0, 25.0 ],
					"presentation_rect" : [ 89.0, 391.0, 0.0, 0.0 ]
				}

			}
, 			{
				"box" : 				{
					"comment" : "",
					"id" : "obj-75",
					"maxclass" : "outlet",
					"numinlets" : 1,
					"numoutlets" : 0,
					"patching_rect" : [ 50.0, 390.0, 25.0, 25.0 ],
					"presentation_rect" : [ 48.0, 393.0, 0.0, 0.0 ]
				}

			}
, 			{
				"box" : 				{
					"comment" : "",
					"id" : "obj-74",
					"maxclass" : "outlet",
					"numinlets" : 1,
					"numoutlets" : 0,
					"patching_rect" : [ 10.0, 390.0, 25.0, 25.0 ]
				}

			}
, 			{
				"box" : 				{
					"fontname" : "Arial",
					"fontsize" : 12.0,
					"id" : "obj-66",
					"ignoreclick" : 1,
					"maxclass" : "number",
					"numinlets" : 1,
					"numoutlets" : 2,
					"outlettype" : [ "int", "bang" ],
					"parameter_enable" : 0,
					"patching_rect" : [ 130.0, 370.0, 30.0, 20.0 ],
					"presentation_rect" : [ 128.0, 370.0, 0.0, 0.0 ],
					"triangle" : 0
				}

			}
, 			{
				"box" : 				{
					"id" : "obj-67",
					"maxclass" : "slider",
					"numinlets" : 1,
					"numoutlets" : 1,
					"outlettype" : [ "" ],
					"parameter_enable" : 0,
					"patching_rect" : [ 130.0, 230.0, 30.0, 140.0 ],
					"presentation_rect" : [ 128.0, 230.0, 0.0, 0.0 ]
				}

			}
, 			{
				"box" : 				{
					"fontname" : "Arial",
					"fontsize" : 12.0,
					"id" : "obj-68",
					"ignoreclick" : 1,
					"maxclass" : "number",
					"numinlets" : 1,
					"numoutlets" : 2,
					"outlettype" : [ "int", "bang" ],
					"parameter_enable" : 0,
					"patching_rect" : [ 50.0, 370.0, 30.0, 20.0 ],
					"presentation_rect" : [ 48.0, 370.0, 0.0, 0.0 ],
					"triangle" : 0
				}

			}
, 			{
				"box" : 				{
					"id" : "obj-69",
					"maxclass" : "slider",
					"numinlets" : 1,
					"numoutlets" : 1,
					"outlettype" : [ "" ],
					"parameter_enable" : 0,
					"patching_rect" : [ 50.0, 230.0, 30.0, 140.0 ],
					"presentation_rect" : [ 48.0, 230.0, 0.0, 0.0 ]
				}

			}
, 			{
				"box" : 				{
					"fontname" : "Arial",
					"fontsize" : 12.0,
					"id" : "obj-70",
					"ignoreclick" : 1,
					"maxclass" : "number",
					"numinlets" : 1,
					"numoutlets" : 2,
					"outlettype" : [ "int", "bang" ],
					"parameter_enable" : 0,
					"patching_rect" : [ 10.0, 370.0, 30.0, 20.0 ],
					"presentation_rect" : [ 8.0, 370.0, 0.0, 0.0 ],
					"triangle" : 0
				}

			}
, 			{
				"box" : 				{
					"id" : "obj-71",
					"maxclass" : "slider",
					"numinlets" : 1,
					"numoutlets" : 1,
					"outlettype" : [ "" ],
					"parameter_enable" : 0,
					"patching_rect" : [ 10.0, 230.0, 30.0, 140.0 ],
					"presentation_rect" : [ 8.0, 230.0, 0.0, 0.0 ]
				}

			}
, 			{
				"box" : 				{
					"fontname" : "Arial",
					"fontsize" : 12.0,
					"id" : "obj-72",
					"ignoreclick" : 1,
					"maxclass" : "number",
					"numinlets" : 1,
					"numoutlets" : 2,
					"outlettype" : [ "int", "bang" ],
					"parameter_enable" : 0,
					"patching_rect" : [ 90.0, 370.0, 30.0, 20.0 ],
					"presentation_rect" : [ 88.0, 370.0, 0.0, 0.0 ],
					"triangle" : 0
				}

			}
, 			{
				"box" : 				{
					"id" : "obj-73",
					"maxclass" : "slider",
					"numinlets" : 1,
					"numoutlets" : 1,
					"outlettype" : [ "" ],
					"parameter_enable" : 0,
					"patching_rect" : [ 90.0, 230.0, 30.0, 140.0 ],
					"presentation_rect" : [ 88.0, 230.0, 0.0, 0.0 ]
				}

			}
 ],
		"lines" : [ 			{
				"patchline" : 				{
					"destination" : [ "obj-100", 0 ],
					"disabled" : 0,
					"hidden" : 0,
					"source" : [ "obj-101", 0 ]
				}

			}
, 			{
				"patchline" : 				{
					"destination" : [ "obj-91", 0 ],
					"disabled" : 0,
					"hidden" : 0,
					"source" : [ "obj-101", 0 ]
				}

			}
, 			{
				"patchline" : 				{
					"destination" : [ "obj-111", 0 ],
					"disabled" : 0,
					"hidden" : 0,
					"source" : [ "obj-102", 0 ]
				}

			}
, 			{
				"patchline" : 				{
					"destination" : [ "obj-117", 0 ],
					"disabled" : 0,
					"hidden" : 0,
					"source" : [ "obj-103", 0 ]
				}

			}
, 			{
				"patchline" : 				{
					"destination" : [ "obj-113", 0 ],
					"disabled" : 0,
					"hidden" : 0,
					"source" : [ "obj-104", 0 ]
				}

			}
, 			{
				"patchline" : 				{
					"destination" : [ "obj-115", 0 ],
					"disabled" : 0,
					"hidden" : 0,
					"source" : [ "obj-105", 0 ]
				}

			}
, 			{
				"patchline" : 				{
					"destination" : [ "obj-106", 0 ],
					"disabled" : 0,
					"hidden" : 0,
					"source" : [ "obj-111", 0 ]
				}

			}
, 			{
				"patchline" : 				{
					"destination" : [ "obj-110", 0 ],
					"disabled" : 0,
					"hidden" : 0,
					"source" : [ "obj-111", 0 ]
				}

			}
, 			{
				"patchline" : 				{
					"destination" : [ "obj-108", 0 ],
					"disabled" : 0,
					"hidden" : 0,
					"source" : [ "obj-113", 0 ]
				}

			}
, 			{
				"patchline" : 				{
					"destination" : [ "obj-112", 0 ],
					"disabled" : 0,
					"hidden" : 0,
					"source" : [ "obj-113", 0 ]
				}

			}
, 			{
				"patchline" : 				{
					"destination" : [ "obj-109", 0 ],
					"disabled" : 0,
					"hidden" : 0,
					"source" : [ "obj-115", 0 ]
				}

			}
, 			{
				"patchline" : 				{
					"destination" : [ "obj-114", 0 ],
					"disabled" : 0,
					"hidden" : 0,
					"source" : [ "obj-115", 0 ]
				}

			}
, 			{
				"patchline" : 				{
					"destination" : [ "obj-107", 0 ],
					"disabled" : 0,
					"hidden" : 0,
					"source" : [ "obj-117", 0 ]
				}

			}
, 			{
				"patchline" : 				{
					"destination" : [ "obj-116", 0 ],
					"disabled" : 0,
					"hidden" : 0,
					"source" : [ "obj-117", 0 ]
				}

			}
, 			{
				"patchline" : 				{
					"destination" : [ "obj-127", 0 ],
					"disabled" : 0,
					"hidden" : 0,
					"source" : [ "obj-118", 0 ]
				}

			}
, 			{
				"patchline" : 				{
					"destination" : [ "obj-133", 0 ],
					"disabled" : 0,
					"hidden" : 0,
					"source" : [ "obj-119", 0 ]
				}

			}
, 			{
				"patchline" : 				{
					"destination" : [ "obj-129", 0 ],
					"disabled" : 0,
					"hidden" : 0,
					"source" : [ "obj-120", 0 ]
				}

			}
, 			{
				"patchline" : 				{
					"destination" : [ "obj-131", 0 ],
					"disabled" : 0,
					"hidden" : 0,
					"source" : [ "obj-121", 0 ]
				}

			}
, 			{
				"patchline" : 				{
					"destination" : [ "obj-122", 0 ],
					"disabled" : 0,
					"hidden" : 0,
					"source" : [ "obj-127", 0 ]
				}

			}
, 			{
				"patchline" : 				{
					"destination" : [ "obj-126", 0 ],
					"disabled" : 0,
					"hidden" : 0,
					"source" : [ "obj-127", 0 ]
				}

			}
, 			{
				"patchline" : 				{
					"destination" : [ "obj-124", 0 ],
					"disabled" : 0,
					"hidden" : 0,
					"source" : [ "obj-129", 0 ]
				}

			}
, 			{
				"patchline" : 				{
					"destination" : [ "obj-128", 0 ],
					"disabled" : 0,
					"hidden" : 0,
					"source" : [ "obj-129", 0 ]
				}

			}
, 			{
				"patchline" : 				{
					"destination" : [ "obj-125", 0 ],
					"disabled" : 0,
					"hidden" : 0,
					"source" : [ "obj-131", 0 ]
				}

			}
, 			{
				"patchline" : 				{
					"destination" : [ "obj-130", 0 ],
					"disabled" : 0,
					"hidden" : 0,
					"source" : [ "obj-131", 0 ]
				}

			}
, 			{
				"patchline" : 				{
					"destination" : [ "obj-123", 0 ],
					"disabled" : 0,
					"hidden" : 0,
					"source" : [ "obj-133", 0 ]
				}

			}
, 			{
				"patchline" : 				{
					"destination" : [ "obj-132", 0 ],
					"disabled" : 0,
					"hidden" : 0,
					"source" : [ "obj-133", 0 ]
				}

			}
, 			{
				"patchline" : 				{
					"destination" : [ "obj-143", 0 ],
					"disabled" : 0,
					"hidden" : 0,
					"source" : [ "obj-134", 0 ]
				}

			}
, 			{
				"patchline" : 				{
					"destination" : [ "obj-149", 0 ],
					"disabled" : 0,
					"hidden" : 0,
					"source" : [ "obj-135", 0 ]
				}

			}
, 			{
				"patchline" : 				{
					"destination" : [ "obj-145", 0 ],
					"disabled" : 0,
					"hidden" : 0,
					"source" : [ "obj-136", 0 ]
				}

			}
, 			{
				"patchline" : 				{
					"destination" : [ "obj-147", 0 ],
					"disabled" : 0,
					"hidden" : 0,
					"source" : [ "obj-137", 0 ]
				}

			}
, 			{
				"patchline" : 				{
					"destination" : [ "obj-138", 0 ],
					"disabled" : 0,
					"hidden" : 0,
					"source" : [ "obj-143", 0 ]
				}

			}
, 			{
				"patchline" : 				{
					"destination" : [ "obj-142", 0 ],
					"disabled" : 0,
					"hidden" : 0,
					"source" : [ "obj-143", 0 ]
				}

			}
, 			{
				"patchline" : 				{
					"destination" : [ "obj-140", 0 ],
					"disabled" : 0,
					"hidden" : 0,
					"source" : [ "obj-145", 0 ]
				}

			}
, 			{
				"patchline" : 				{
					"destination" : [ "obj-144", 0 ],
					"disabled" : 0,
					"hidden" : 0,
					"source" : [ "obj-145", 0 ]
				}

			}
, 			{
				"patchline" : 				{
					"destination" : [ "obj-141", 0 ],
					"disabled" : 0,
					"hidden" : 0,
					"source" : [ "obj-147", 0 ]
				}

			}
, 			{
				"patchline" : 				{
					"destination" : [ "obj-146", 0 ],
					"disabled" : 0,
					"hidden" : 0,
					"source" : [ "obj-147", 0 ]
				}

			}
, 			{
				"patchline" : 				{
					"destination" : [ "obj-139", 0 ],
					"disabled" : 0,
					"hidden" : 0,
					"source" : [ "obj-149", 0 ]
				}

			}
, 			{
				"patchline" : 				{
					"destination" : [ "obj-148", 0 ],
					"disabled" : 0,
					"hidden" : 0,
					"source" : [ "obj-149", 0 ]
				}

			}
, 			{
				"patchline" : 				{
					"destination" : [ "obj-159", 0 ],
					"disabled" : 0,
					"hidden" : 0,
					"source" : [ "obj-150", 0 ]
				}

			}
, 			{
				"patchline" : 				{
					"destination" : [ "obj-165", 0 ],
					"disabled" : 0,
					"hidden" : 0,
					"source" : [ "obj-151", 0 ]
				}

			}
, 			{
				"patchline" : 				{
					"destination" : [ "obj-161", 0 ],
					"disabled" : 0,
					"hidden" : 0,
					"source" : [ "obj-152", 0 ]
				}

			}
, 			{
				"patchline" : 				{
					"destination" : [ "obj-163", 0 ],
					"disabled" : 0,
					"hidden" : 0,
					"source" : [ "obj-153", 0 ]
				}

			}
, 			{
				"patchline" : 				{
					"destination" : [ "obj-154", 0 ],
					"disabled" : 0,
					"hidden" : 0,
					"source" : [ "obj-159", 0 ]
				}

			}
, 			{
				"patchline" : 				{
					"destination" : [ "obj-158", 0 ],
					"disabled" : 0,
					"hidden" : 0,
					"source" : [ "obj-159", 0 ]
				}

			}
, 			{
				"patchline" : 				{
					"destination" : [ "obj-156", 0 ],
					"disabled" : 0,
					"hidden" : 0,
					"source" : [ "obj-161", 0 ]
				}

			}
, 			{
				"patchline" : 				{
					"destination" : [ "obj-160", 0 ],
					"disabled" : 0,
					"hidden" : 0,
					"source" : [ "obj-161", 0 ]
				}

			}
, 			{
				"patchline" : 				{
					"destination" : [ "obj-157", 0 ],
					"disabled" : 0,
					"hidden" : 0,
					"source" : [ "obj-163", 0 ]
				}

			}
, 			{
				"patchline" : 				{
					"destination" : [ "obj-162", 0 ],
					"disabled" : 0,
					"hidden" : 0,
					"source" : [ "obj-163", 0 ]
				}

			}
, 			{
				"patchline" : 				{
					"destination" : [ "obj-155", 0 ],
					"disabled" : 0,
					"hidden" : 0,
					"source" : [ "obj-165", 0 ]
				}

			}
, 			{
				"patchline" : 				{
					"destination" : [ "obj-164", 0 ],
					"disabled" : 0,
					"hidden" : 0,
					"source" : [ "obj-165", 0 ]
				}

			}
, 			{
				"patchline" : 				{
					"destination" : [ "obj-175", 0 ],
					"disabled" : 0,
					"hidden" : 0,
					"source" : [ "obj-166", 0 ]
				}

			}
, 			{
				"patchline" : 				{
					"destination" : [ "obj-181", 0 ],
					"disabled" : 0,
					"hidden" : 0,
					"source" : [ "obj-167", 0 ]
				}

			}
, 			{
				"patchline" : 				{
					"destination" : [ "obj-177", 0 ],
					"disabled" : 0,
					"hidden" : 0,
					"source" : [ "obj-168", 0 ]
				}

			}
, 			{
				"patchline" : 				{
					"destination" : [ "obj-179", 0 ],
					"disabled" : 0,
					"hidden" : 0,
					"source" : [ "obj-169", 0 ]
				}

			}
, 			{
				"patchline" : 				{
					"destination" : [ "obj-170", 0 ],
					"disabled" : 0,
					"hidden" : 0,
					"source" : [ "obj-175", 0 ]
				}

			}
, 			{
				"patchline" : 				{
					"destination" : [ "obj-174", 0 ],
					"disabled" : 0,
					"hidden" : 0,
					"source" : [ "obj-175", 0 ]
				}

			}
, 			{
				"patchline" : 				{
					"destination" : [ "obj-172", 0 ],
					"disabled" : 0,
					"hidden" : 0,
					"source" : [ "obj-177", 0 ]
				}

			}
, 			{
				"patchline" : 				{
					"destination" : [ "obj-176", 0 ],
					"disabled" : 0,
					"hidden" : 0,
					"source" : [ "obj-177", 0 ]
				}

			}
, 			{
				"patchline" : 				{
					"destination" : [ "obj-173", 0 ],
					"disabled" : 0,
					"hidden" : 0,
					"source" : [ "obj-179", 0 ]
				}

			}
, 			{
				"patchline" : 				{
					"destination" : [ "obj-178", 0 ],
					"disabled" : 0,
					"hidden" : 0,
					"source" : [ "obj-179", 0 ]
				}

			}
, 			{
				"patchline" : 				{
					"destination" : [ "obj-171", 0 ],
					"disabled" : 0,
					"hidden" : 0,
					"source" : [ "obj-181", 0 ]
				}

			}
, 			{
				"patchline" : 				{
					"destination" : [ "obj-180", 0 ],
					"disabled" : 0,
					"hidden" : 0,
					"source" : [ "obj-181", 0 ]
				}

			}
, 			{
				"patchline" : 				{
					"destination" : [ "obj-191", 0 ],
					"disabled" : 0,
					"hidden" : 0,
					"source" : [ "obj-182", 0 ]
				}

			}
, 			{
				"patchline" : 				{
					"destination" : [ "obj-197", 0 ],
					"disabled" : 0,
					"hidden" : 0,
					"source" : [ "obj-183", 0 ]
				}

			}
, 			{
				"patchline" : 				{
					"destination" : [ "obj-193", 0 ],
					"disabled" : 0,
					"hidden" : 0,
					"source" : [ "obj-184", 0 ]
				}

			}
, 			{
				"patchline" : 				{
					"destination" : [ "obj-195", 0 ],
					"disabled" : 0,
					"hidden" : 0,
					"source" : [ "obj-185", 0 ]
				}

			}
, 			{
				"patchline" : 				{
					"destination" : [ "obj-186", 0 ],
					"disabled" : 0,
					"hidden" : 0,
					"source" : [ "obj-191", 0 ]
				}

			}
, 			{
				"patchline" : 				{
					"destination" : [ "obj-190", 0 ],
					"disabled" : 0,
					"hidden" : 0,
					"source" : [ "obj-191", 0 ]
				}

			}
, 			{
				"patchline" : 				{
					"destination" : [ "obj-188", 0 ],
					"disabled" : 0,
					"hidden" : 0,
					"source" : [ "obj-193", 0 ]
				}

			}
, 			{
				"patchline" : 				{
					"destination" : [ "obj-192", 0 ],
					"disabled" : 0,
					"hidden" : 0,
					"source" : [ "obj-193", 0 ]
				}

			}
, 			{
				"patchline" : 				{
					"destination" : [ "obj-189", 0 ],
					"disabled" : 0,
					"hidden" : 0,
					"source" : [ "obj-195", 0 ]
				}

			}
, 			{
				"patchline" : 				{
					"destination" : [ "obj-194", 0 ],
					"disabled" : 0,
					"hidden" : 0,
					"source" : [ "obj-195", 0 ]
				}

			}
, 			{
				"patchline" : 				{
					"destination" : [ "obj-187", 0 ],
					"disabled" : 0,
					"hidden" : 0,
					"source" : [ "obj-197", 0 ]
				}

			}
, 			{
				"patchline" : 				{
					"destination" : [ "obj-196", 0 ],
					"disabled" : 0,
					"hidden" : 0,
					"source" : [ "obj-197", 0 ]
				}

			}
, 			{
				"patchline" : 				{
					"destination" : [ "obj-66", 0 ],
					"disabled" : 0,
					"hidden" : 0,
					"source" : [ "obj-67", 0 ]
				}

			}
, 			{
				"patchline" : 				{
					"destination" : [ "obj-77", 0 ],
					"disabled" : 0,
					"hidden" : 0,
					"source" : [ "obj-67", 0 ]
				}

			}
, 			{
				"patchline" : 				{
					"destination" : [ "obj-68", 0 ],
					"disabled" : 0,
					"hidden" : 0,
					"source" : [ "obj-69", 0 ]
				}

			}
, 			{
				"patchline" : 				{
					"destination" : [ "obj-75", 0 ],
					"disabled" : 0,
					"hidden" : 0,
					"source" : [ "obj-69", 0 ]
				}

			}
, 			{
				"patchline" : 				{
					"destination" : [ "obj-70", 0 ],
					"disabled" : 0,
					"hidden" : 0,
					"source" : [ "obj-71", 0 ]
				}

			}
, 			{
				"patchline" : 				{
					"destination" : [ "obj-74", 0 ],
					"disabled" : 0,
					"hidden" : 0,
					"source" : [ "obj-71", 0 ]
				}

			}
, 			{
				"patchline" : 				{
					"destination" : [ "obj-72", 0 ],
					"disabled" : 0,
					"hidden" : 0,
					"source" : [ "obj-73", 0 ]
				}

			}
, 			{
				"patchline" : 				{
					"destination" : [ "obj-76", 0 ],
					"disabled" : 0,
					"hidden" : 0,
					"source" : [ "obj-73", 0 ]
				}

			}
, 			{
				"patchline" : 				{
					"destination" : [ "obj-71", 0 ],
					"disabled" : 0,
					"hidden" : 0,
					"source" : [ "obj-78", 0 ]
				}

			}
, 			{
				"patchline" : 				{
					"destination" : [ "obj-69", 0 ],
					"disabled" : 0,
					"hidden" : 0,
					"source" : [ "obj-79", 0 ]
				}

			}
, 			{
				"patchline" : 				{
					"destination" : [ "obj-73", 0 ],
					"disabled" : 0,
					"hidden" : 0,
					"source" : [ "obj-80", 0 ]
				}

			}
, 			{
				"patchline" : 				{
					"destination" : [ "obj-67", 0 ],
					"disabled" : 0,
					"hidden" : 0,
					"source" : [ "obj-81", 0 ]
				}

			}
, 			{
				"patchline" : 				{
					"destination" : [ "obj-95", 0 ],
					"disabled" : 0,
					"hidden" : 0,
					"source" : [ "obj-86", 0 ]
				}

			}
, 			{
				"patchline" : 				{
					"destination" : [ "obj-101", 0 ],
					"disabled" : 0,
					"hidden" : 0,
					"source" : [ "obj-87", 0 ]
				}

			}
, 			{
				"patchline" : 				{
					"destination" : [ "obj-97", 0 ],
					"disabled" : 0,
					"hidden" : 0,
					"source" : [ "obj-88", 0 ]
				}

			}
, 			{
				"patchline" : 				{
					"destination" : [ "obj-99", 0 ],
					"disabled" : 0,
					"hidden" : 0,
					"source" : [ "obj-89", 0 ]
				}

			}
, 			{
				"patchline" : 				{
					"destination" : [ "obj-90", 0 ],
					"disabled" : 0,
					"hidden" : 0,
					"source" : [ "obj-95", 0 ]
				}

			}
, 			{
				"patchline" : 				{
					"destination" : [ "obj-94", 0 ],
					"disabled" : 0,
					"hidden" : 0,
					"source" : [ "obj-95", 0 ]
				}

			}
, 			{
				"patchline" : 				{
					"destination" : [ "obj-92", 0 ],
					"disabled" : 0,
					"hidden" : 0,
					"source" : [ "obj-97", 0 ]
				}

			}
, 			{
				"patchline" : 				{
					"destination" : [ "obj-96", 0 ],
					"disabled" : 0,
					"hidden" : 0,
					"source" : [ "obj-97", 0 ]
				}

			}
, 			{
				"patchline" : 				{
					"destination" : [ "obj-93", 0 ],
					"disabled" : 0,
					"hidden" : 0,
					"source" : [ "obj-99", 0 ]
				}

			}
, 			{
				"patchline" : 				{
					"destination" : [ "obj-98", 0 ],
					"disabled" : 0,
					"hidden" : 0,
					"source" : [ "obj-99", 0 ]
				}

			}
 ],
		"dependency_cache" : [  ]
	}

}
